<svg width="512" height="512" viewBox="0 0 512 512" fill="none" xmlns="http://www.w3.org/2000/svg">
<rect width="512" height="512" rx="120" fill="#2B2C7C"/>
<path d="M395.998 256.031H351V207.211L390.714 167.496C396.572 161.639 396.572 152.14 390.714 146.283C384.857 140.426 375.359 140.426 369.501 146.283L345.801 169.984C332.916 132.784 297.527 106 255.999 106C214.471 106 179.086 132.787 166.202 169.989L142.497 146.283C136.641 140.424 127.143 140.426 121.284 146.283C115.425 152.14 115.426 161.638 121.284 167.496L161 207.213V256.031H116C107.716 256.031 101 262.747 101 271.031C101 279.315 107.716 286.031 116 286.031H161.134C161.989 302.345 166.983 317.582 175.078 330.711L125.393 380.394C119.535 386.251 119.535 395.748 125.393 401.607C128.322 404.537 132.161 406.001 136 406.001C139.838 406.001 143.678 404.536 146.606 401.607L194.701 353.514C211.259 367.532 232.658 376 256.002 376C256.021 376 256.039 375.999 256.059 375.999C256.07 375.999 256.081 376.001 256.092 376.001C256.111 376.001 256.129 375.998 256.148 375.998C279.433 375.963 300.777 367.504 317.298 353.515L365.392 401.607C368.321 404.536 372.16 406.001 375.998 406.001C379.837 406.001 383.676 404.536 386.605 401.607C392.463 395.749 392.463 386.252 386.605 380.394L336.922 330.713C345.018 317.582 350.011 302.347 350.866 286.031H395.998C404.282 286.031 410.998 279.315 410.998 271.031C410.998 262.747 404.282 256.031 395.998 256.031ZM255.999 136C286.68 136 312.464 157.365 319.253 186H192.747C199.535 157.365 225.318 136 255.999 136ZM191 281V271.728C191.011 271.496 191.035 271.266 191.035 271.032C191.035 270.798 191.011 270.568 191 270.337V216.001H241.092V344.255C212.415 337.495 191 311.709 191 281ZM271.092 344.213V216H321V270.297C320.988 270.541 320.963 270.783 320.963 271.031C320.963 271.279 320.988 271.521 321 271.765V280.999C321 311.646 299.676 337.389 271.092 344.213Z" fill="white"/>
</svg>
