<svg width="512" height="512" viewBox="0 0 512 512" fill="none" xmlns="http://www.w3.org/2000/svg">
<rect width="512" height="512" rx="120" fill="#2B2C7C"/>
<path d="M234.958 179.179L150.315 263.822C146.274 267.725 140.861 269.885 135.242 269.836C129.624 269.787 124.249 267.534 120.276 263.561C116.303 259.588 114.05 254.213 114.001 248.595C113.952 242.976 116.112 237.563 120.015 233.522L241.236 112.301C243.222 110.304 245.582 108.719 248.182 107.638C250.782 106.557 253.57 106 256.386 106C259.202 106 261.99 106.557 264.59 107.638C267.19 108.719 269.551 110.304 271.536 112.301L392.757 233.522C396.564 237.581 398.642 242.963 398.552 248.528C398.462 254.092 396.21 259.403 392.273 263.337C388.337 267.271 383.024 269.519 377.459 269.606C371.894 269.692 366.514 267.61 362.458 263.8L277.815 179.158V384.571C277.815 390.255 275.557 395.705 271.539 399.724C267.52 403.742 262.07 406 256.386 406C250.703 406 245.253 403.742 241.234 399.724C237.215 395.705 234.958 390.255 234.958 384.571V179.158V179.179Z" fill="white"/>
</svg>
