<svg width="512" height="512" viewBox="0 0 512 512" fill="none" xmlns="http://www.w3.org/2000/svg">
<rect width="512" height="512" rx="120" fill="#2B2C7C"/>
<g clip-path="url(#clip0_28_9)">
<path d="M378.677 228.618H283.296V133.316C283.296 118.231 271.125 106 256.039 106C240.954 106 228.789 118.231 228.789 133.323V228.684H133.362C118.277 228.684 106.013 240.915 106.02 256.007C106.013 263.546 109.059 270.458 113.995 275.393C118.937 280.343 125.757 283.468 133.289 283.468H228.789V378.697C228.789 386.243 231.783 393.075 236.725 398.005C241.668 402.947 248.467 406.007 256.013 406.007C271.092 406.007 283.296 393.776 283.296 378.697V283.461H378.677C393.762 283.461 405.993 271.125 405.987 256.04C405.98 240.961 393.749 228.618 378.677 228.618Z" fill="white"/>
</g>
<defs>
<clipPath id="clip0_28_9">
<rect width="300" height="300" fill="white" transform="translate(106 106)"/>
</clipPath>
</defs>
</svg>
